<svg width="231" height="398" viewBox="0 0 231 398" fill="none" xmlns="http://www.w3.org/2000/svg">
<g filter="url(#filter0_d_39_2)">
<rect x="87" y="246" width="68" height="135" fill="#970F0F"/>
<path d="M4 18C4 8.05888 12.0589 0 22 0H209C218.941 0 227 8.05888 227 18V264C227 269.523 222.523 274 217 274H14C8.47716 274 4 269.523 4 264V18Z" fill="#BA4040"/>
<rect x="86" y="245" width="68" height="135" fill="#CD1A1A"/>
<path d="M4 21C4 11.0589 12.0589 3 22 3H207C216.941 3 225 11.0589 225 21V264C225 269.523 220.523 274 215 274H14C8.47715 274 4 269.523 4 264V21Z" fill="#F84A4A"/>
<rect x="4.25" y="60.25" width="220.5" height="9.5" fill="#FD6E6E" stroke="#BA4040" stroke-width="0.5"/>
<rect x="27.25" y="70.25" width="82.5" height="57.5" rx="2.75" fill="#FD6E6E" stroke="#BA4040" stroke-width="0.5"/>
<path d="M27 70H110V102C110 103.657 108.657 105 107 105H30C28.3431 105 27 103.657 27 102V70Z" fill="#BA4040"/>
<path d="M36 70H102V79C102 83.4183 98.4183 87 94 87H44C39.5817 87 36 83.4183 36 79V70Z" fill="#591313"/>
<rect x="120.25" y="70.25" width="82.5" height="57.5" rx="2.75" fill="#FD6E6E" stroke="#BA4040" stroke-width="0.5"/>
<path d="M120 70H203V102C203 103.657 201.657 105 200 105H123C121.343 105 120 103.657 120 102V70Z" fill="#BA4040"/>
<path d="M129 70H194V79C194 83.4183 190.418 87 186 87H137C132.582 87 129 83.4183 129 79V70Z" fill="#591313"/>
<path d="M87.3626 205.727V184.727H89.6296V187.153H89.908C90.0804 186.888 90.319 186.55 90.6239 186.139C90.9355 185.722 91.3796 185.35 91.9563 185.026C92.5397 184.694 93.3285 184.528 94.3228 184.528C95.6088 184.528 96.7423 184.85 97.7234 185.493C98.7044 186.136 99.4701 187.047 100.02 188.227C100.57 189.407 100.846 190.799 100.846 192.403C100.846 194.021 100.57 195.423 100.02 196.609C99.4701 197.789 98.7077 198.704 97.7333 199.354C96.7589 199.997 95.6353 200.318 94.3626 200.318C93.3815 200.318 92.596 200.156 92.006 199.831C91.4161 199.5 90.962 199.125 90.6438 198.707C90.3256 198.283 90.0804 197.932 89.908 197.653H89.7092V205.727H87.3626ZM89.6694 192.364C89.6694 193.517 89.8384 194.535 90.1765 195.416C90.5146 196.291 91.0084 196.977 91.658 197.474C92.3076 197.965 93.1031 198.21 94.0444 198.21C95.0255 198.21 95.8441 197.952 96.5004 197.435C97.1632 196.911 97.6604 196.208 97.9918 195.327C98.3299 194.438 98.4989 193.451 98.4989 192.364C98.4989 191.29 98.3332 190.322 98.0018 189.46C97.677 188.592 97.1831 187.906 96.5202 187.402C95.864 186.892 95.0387 186.636 94.0444 186.636C93.0898 186.636 92.2878 186.878 91.6381 187.362C90.9885 187.839 90.498 188.509 90.1665 189.371C89.8351 190.226 89.6694 191.223 89.6694 192.364ZM110.63 200.318C109.251 200.318 108.041 199.99 107 199.334C105.966 198.678 105.158 197.759 104.574 196.58C103.998 195.4 103.709 194.021 103.709 192.443C103.709 190.852 103.998 189.464 104.574 188.277C105.158 187.09 105.966 186.169 107 185.513C108.041 184.857 109.251 184.528 110.63 184.528C112.008 184.528 113.215 184.857 114.249 185.513C115.29 186.169 116.098 187.09 116.675 188.277C117.258 189.464 117.55 190.852 117.55 192.443C117.55 194.021 117.258 195.4 116.675 196.58C116.098 197.759 115.29 198.678 114.249 199.334C113.215 199.99 112.008 200.318 110.63 200.318ZM110.63 198.21C111.677 198.21 112.539 197.942 113.215 197.405C113.891 196.868 114.391 196.162 114.716 195.287C115.041 194.412 115.203 193.464 115.203 192.443C115.203 191.422 115.041 190.471 114.716 189.589C114.391 188.708 113.891 187.995 113.215 187.452C112.539 186.908 111.677 186.636 110.63 186.636C109.582 186.636 108.721 186.908 108.044 187.452C107.368 187.995 106.868 188.708 106.543 189.589C106.218 190.471 106.056 191.422 106.056 192.443C106.056 193.464 106.218 194.412 106.543 195.287C106.868 196.162 107.368 196.868 108.044 197.405C108.721 197.942 109.582 198.21 110.63 198.21ZM131.95 188.148L129.842 188.744C129.71 188.393 129.514 188.052 129.256 187.72C129.004 187.382 128.659 187.104 128.222 186.885C127.784 186.666 127.224 186.557 126.541 186.557C125.607 186.557 124.828 186.772 124.205 187.203C123.588 187.627 123.28 188.168 123.28 188.824C123.28 189.407 123.492 189.868 123.916 190.206C124.34 190.544 125.003 190.826 125.905 191.051L128.172 191.608C129.537 191.939 130.555 192.446 131.224 193.129C131.894 193.805 132.229 194.677 132.229 195.744C132.229 196.619 131.977 197.402 131.473 198.091C130.976 198.78 130.28 199.324 129.385 199.722C128.49 200.119 127.449 200.318 126.263 200.318C124.705 200.318 123.416 199.98 122.395 199.304C121.374 198.628 120.728 197.64 120.456 196.341L122.683 195.784C122.895 196.606 123.296 197.223 123.886 197.634C124.483 198.045 125.262 198.25 126.223 198.25C127.317 198.25 128.185 198.018 128.828 197.554C129.478 197.083 129.803 196.52 129.803 195.864C129.803 195.333 129.617 194.889 129.246 194.531C128.875 194.167 128.304 193.895 127.536 193.716L124.99 193.119C123.591 192.788 122.564 192.274 121.908 191.578C121.258 190.875 120.933 189.997 120.933 188.943C120.933 188.081 121.175 187.319 121.659 186.656C122.15 185.993 122.816 185.473 123.658 185.095C124.506 184.717 125.467 184.528 126.541 184.528C128.053 184.528 129.239 184.86 130.101 185.523C130.969 186.186 131.586 187.061 131.95 188.148ZM142.403 184.727V186.716H134.488V184.727H142.403ZM136.795 181.068H139.142V195.625C139.142 196.288 139.238 196.785 139.43 197.116C139.629 197.441 139.881 197.66 140.186 197.773C140.497 197.879 140.825 197.932 141.17 197.932C141.429 197.932 141.641 197.919 141.806 197.892C141.972 197.859 142.105 197.832 142.204 197.812L142.681 199.92C142.522 199.98 142.3 200.04 142.015 200.099C141.73 200.166 141.369 200.199 140.931 200.199C140.269 200.199 139.619 200.056 138.983 199.771C138.353 199.486 137.829 199.052 137.412 198.469C137.001 197.885 136.795 197.15 136.795 196.261V181.068Z" fill="#FFF9E4"/>
<path d="M33 372H207V390H33V372Z" fill="#FD6E6E"/>
</g>
<defs>
<filter id="filter0_d_39_2" x="0" y="0" width="231" height="398" filterUnits="userSpaceOnUse" color-interpolation-filters="sRGB">
<feFlood flood-opacity="0" result="BackgroundImageFix"/>
<feColorMatrix in="SourceAlpha" type="matrix" values="0 0 0 0 0 0 0 0 0 0 0 0 0 0 0 0 0 0 127 0" result="hardAlpha"/>
<feOffset dy="4"/>
<feGaussianBlur stdDeviation="2"/>
<feComposite in2="hardAlpha" operator="out"/>
<feColorMatrix type="matrix" values="0 0 0 0 0 0 0 0 0 0 0 0 0 0 0 0 0 0 0.25 0"/>
<feBlend mode="normal" in2="BackgroundImageFix" result="effect1_dropShadow_39_2"/>
<feBlend mode="normal" in="SourceGraphic" in2="effect1_dropShadow_39_2" result="shape"/>
</filter>
</defs>
</svg>
